<svg width="24" height="24" viewBox="0 0 24 24" fill="none" xmlns="http://www.w3.org/2000/svg">
<path d="M8.25 0.75C8.25 0.551088 8.32902 0.360322 8.46967 0.21967C8.61032 0.0790176 8.80109 0 9 0L15 0C15.1989 0 15.3897 0.0790176 15.5303 0.21967C15.671 0.360322 15.75 0.551088 15.75 0.75C15.75 0.948912 15.671 1.13968 15.5303 1.28033C15.3897 1.42098 15.1989 1.5 15 1.5H9C8.80109 1.5 8.61032 1.42098 8.46967 1.28033C8.32902 1.13968 8.25 0.948912 8.25 0.75ZM18.75 5.25V21C18.75 21.5967 18.5129 22.169 18.091 22.591C17.669 23.0129 17.0967 23.25 16.5 23.25H7.5C6.90326 23.25 6.33097 23.0129 5.90901 22.591C5.48705 22.169 5.25 21.5967 5.25 21V5.25C5.25 4.65326 5.48705 4.08097 5.90901 3.65901C6.33097 3.23705 6.90326 3 7.5 3H16.5C17.0967 3 17.669 3.23705 18.091 3.65901C18.5129 4.08097 18.75 4.65326 18.75 5.25ZM17.25 5.25C17.25 5.05109 17.171 4.86032 17.0303 4.71967C16.8897 4.57902 16.6989 4.5 16.5 4.5H7.5C7.30109 4.5 7.11032 4.57902 6.96967 4.71967C6.82902 4.86032 6.75 5.05109 6.75 5.25V21C6.75 21.1989 6.82902 21.3897 6.96967 21.5303C7.11032 21.671 7.30109 21.75 7.5 21.75H16.5C16.6989 21.75 16.8897 21.671 17.0303 21.5303C17.171 21.3897 17.25 21.1989 17.25 21V5.25ZM15 18H9C8.80109 18 8.61032 18.079 8.46967 18.2197C8.32902 18.3603 8.25 18.5511 8.25 18.75C8.25 18.9489 8.32902 19.1397 8.46967 19.2803C8.61032 19.421 8.80109 19.5 9 19.5H15C15.1989 19.5 15.3897 19.421 15.5303 19.2803C15.671 19.1397 15.75 18.9489 15.75 18.75C15.75 18.5511 15.671 18.3603 15.5303 18.2197C15.3897 18.079 15.1989 18 15 18Z" fill="black"/>
</svg>
