<svg width="62" height="39" viewBox="0 0 62 39" fill="none" xmlns="http://www.w3.org/2000/svg">
<g clip-path="url(#clip0_57_563)">
<g clip-path="url(#clip1_57_563)">
<g clip-path="url(#clip2_57_563)">
<g clip-path="url(#clip3_57_563)">
<g clip-path="url(#clip4_57_563)">
<g clip-path="url(#clip5_57_563)">
<g clip-path="url(#clip6_57_563)">
<g clip-path="url(#clip7_57_563)">
<path d="M23.2196 16.0493C23.2196 16.912 23.0823 17.7049 22.8076 18.4281C22.5351 19.1492 22.1488 19.7693 21.6488 20.2887C21.1509 20.8101 20.5511 21.2146 19.8494 21.5022C19.1498 21.7898 18.3762 21.9335 17.5285 21.9335C16.6809 21.9335 15.9083 21.7898 15.2109 21.5022C14.5134 21.2146 13.9158 20.8101 13.4179 20.2887C12.9179 19.7693 12.5316 19.1492 12.2591 18.4281C11.9844 17.7049 11.8471 16.912 11.8471 16.0493C11.8471 15.1845 11.9844 14.3915 12.2591 13.6705C12.5316 12.9495 12.9179 12.3271 13.4179 11.8035C13.9158 11.282 14.5134 10.8754 15.2109 10.5835C15.9083 10.2938 16.6809 10.149 17.5285 10.149C18.3762 10.149 19.1498 10.2938 19.8494 10.5835C20.5511 10.8754 21.1509 11.282 21.6488 11.8035C22.1488 12.3271 22.5351 12.9495 22.8076 13.6705C23.0823 14.3915 23.2196 15.1845 23.2196 16.0493ZM21.6166 16.0493C21.6166 15.3411 21.52 14.7049 21.3269 14.1405C21.1338 13.5782 20.8601 13.1029 20.5061 12.7145C20.152 12.3239 19.7228 12.0245 19.2185 11.8164C18.7142 11.6082 18.1509 11.5041 17.5285 11.5041C16.9105 11.5041 16.3504 11.6082 15.8482 11.8164C15.3439 12.0245 14.9126 12.3239 14.5542 12.7145C14.198 13.1029 13.9233 13.5782 13.7302 14.1405C13.537 14.7049 13.4405 15.3411 13.4405 16.0493C13.4405 16.7575 13.537 17.3916 13.7302 17.9517C13.9233 18.5118 14.198 18.9871 14.5542 19.3777C14.9126 19.7661 15.3439 20.0633 15.8482 20.2693C16.3504 20.4754 16.9105 20.5784 17.5285 20.5784C18.1509 20.5784 18.7142 20.4754 19.2185 20.2693C19.7228 20.0633 20.152 19.7661 20.5061 19.3777C20.8601 18.9871 21.1338 18.5118 21.3269 17.9517C21.52 17.3916 21.6166 16.7575 21.6166 16.0493ZM31.0224 17.6427C31.0975 17.7714 31.164 17.9066 31.2219 18.0483C31.2777 18.1899 31.3325 18.3337 31.3861 18.4796C31.4398 18.3294 31.4956 18.1856 31.5535 18.0483C31.6136 17.9109 31.6812 17.7725 31.7563 17.633L35.6577 10.5449C35.7285 10.4204 35.8014 10.3453 35.8765 10.3196C35.9517 10.2917 36.059 10.2777 36.1984 10.2777H37.3476V21.8112H35.9796V13.3357C35.9796 13.2241 35.9828 13.104 35.9892 12.9752C35.9935 12.8464 36.001 12.7145 36.0117 12.5793L32.0621 19.7897C31.9269 20.0322 31.7391 20.1535 31.4988 20.1535H31.2735C31.031 20.1535 30.8432 20.0322 30.7101 19.7897L26.6703 12.5567C26.6854 12.6962 26.6972 12.8325 26.7058 12.9655C26.7143 13.1007 26.7186 13.2241 26.7186 13.3357V21.8112H25.3506V10.2777H26.4997C26.6392 10.2777 26.7465 10.2917 26.8216 10.3196C26.8967 10.3453 26.9697 10.4204 27.0405 10.5449L31.0224 17.6427ZM50.1526 16.0493C50.1526 16.912 50.0153 17.6974 49.7406 18.4056C49.468 19.1137 49.0818 19.72 48.5818 20.2243C48.0839 20.7286 47.4862 21.1192 46.7888 21.396C46.0914 21.6728 45.3188 21.8112 44.4711 21.8112H40.1578V10.2777H44.4711C45.3188 10.2777 46.0914 10.4161 46.7888 10.693C47.4862 10.9698 48.0839 11.3614 48.5818 11.8679C49.0818 12.3743 49.468 12.9816 49.7406 13.6898C50.0153 14.398 50.1526 15.1845 50.1526 16.0493ZM48.5496 16.0493C48.5496 15.3411 48.453 14.7081 48.2599 14.1501C48.0667 13.5922 47.7931 13.1201 47.439 12.7338C47.0849 12.3475 46.6557 12.0524 46.1514 11.8486C45.6471 11.6447 45.087 11.5428 44.4711 11.5428H41.7254V20.5462H44.4711C45.087 20.5462 45.6471 20.4442 46.1514 20.2404C46.6557 20.0365 47.0849 19.7436 47.439 19.3616C47.7931 18.9775 48.0667 18.5064 48.2599 17.9485C48.453 17.3905 48.5496 16.7575 48.5496 16.0493Z" fill="#102E44"/>
</g>
</g>
<g clip-path="url(#clip8_57_563)">
<g clip-path="url(#clip9_57_563)">
<path d="M11.8419 26.7645C11.8419 26.5176 11.8897 26.2829 11.9851 26.0605C12.0806 25.8386 12.2116 25.6438 12.3781 25.4759C12.544 25.3081 12.7372 25.1754 12.9577 25.078C13.1782 24.9812 13.4152 24.9328 13.6686 24.9328C13.9188 24.9328 14.1551 24.9812 14.3776 25.078C14.5994 25.1754 14.7936 25.3081 14.9601 25.4759C15.126 25.6438 15.2577 25.8386 15.3551 26.0605C15.4519 26.2829 15.5002 26.5176 15.5002 26.7645C15.5002 27.0179 15.4519 27.2549 15.3551 27.4754C15.2577 27.6959 15.126 27.8891 14.9601 28.055C14.7936 28.2215 14.5994 28.3525 14.3776 28.448C14.1551 28.5434 13.9188 28.5912 13.6686 28.5912C13.4152 28.5912 13.1782 28.5434 12.9577 28.448C12.7372 28.3525 12.544 28.2215 12.3781 28.055C12.2116 27.8891 12.0806 27.6959 11.9851 27.4754C11.8897 27.2549 11.8419 27.0179 11.8419 26.7645ZM12.3801 26.7694C12.3801 26.9504 12.414 27.1206 12.4818 27.2799C12.5489 27.4398 12.6417 27.5791 12.7602 27.6976C12.8787 27.816 13.0169 27.9099 13.1749 27.979C13.3329 28.0481 13.5008 28.0826 13.6785 28.0826C13.8562 28.0826 14.0234 28.0481 14.1801 27.979C14.3361 27.9099 14.4727 27.816 14.5899 27.6976C14.7064 27.5791 14.7982 27.4398 14.8654 27.2799C14.9332 27.1206 14.9671 26.9488 14.9671 26.7645C14.9671 26.5834 14.9332 26.413 14.8654 26.253C14.7982 26.0937 14.7054 25.9548 14.5869 25.8363C14.4684 25.7178 14.3312 25.624 14.1752 25.5549C14.0185 25.4858 13.8513 25.4512 13.6736 25.4512C13.4958 25.4512 13.328 25.4858 13.17 25.5549C13.012 25.624 12.8748 25.7178 12.7582 25.8363C12.6411 25.9548 12.5489 26.0947 12.4818 26.256C12.414 26.4172 12.3801 26.5884 12.3801 26.7694ZM15.915 28.5517V26.488H16.2852C16.2918 26.59 16.2977 26.6832 16.303 26.7674C16.3076 26.851 16.3132 26.934 16.3198 27.0163C16.3955 26.8385 16.5031 26.697 16.6427 26.5917C16.7829 26.4864 16.955 26.4337 17.1591 26.4337C17.3664 26.4337 17.5326 26.4913 17.6577 26.6065C17.7828 26.7217 17.8486 26.8698 17.8552 27.0508V28.5517H17.4306V27.2434C17.424 27.138 17.3878 27.0482 17.322 26.9738C17.2562 26.9001 17.1525 26.8599 17.011 26.8533C16.9122 26.8533 16.8217 26.8705 16.7394 26.9047C16.6572 26.9396 16.5864 26.9866 16.5271 27.0459C16.4679 27.1051 16.4208 27.1759 16.3859 27.2582C16.3517 27.3405 16.3346 27.431 16.3346 27.5297V28.5517H15.915ZM18.8525 24.7156V28.5517H18.4328V24.7156H18.8525ZM19.3955 25.6981C19.3955 25.6191 19.4242 25.5533 19.4814 25.5006C19.5394 25.4479 19.6012 25.4216 19.6671 25.4216C19.7329 25.4216 19.7938 25.4479 19.8497 25.5006C19.9057 25.5533 19.9337 25.6191 19.9337 25.6981C19.9337 25.7771 19.9057 25.8419 19.8497 25.8926C19.7938 25.9439 19.7329 25.9696 19.6671 25.9696C19.6012 25.9696 19.5394 25.9439 19.4814 25.8926C19.4242 25.8419 19.3955 25.7771 19.3955 25.6981ZM19.8695 26.488V28.5517H19.4498V26.488H19.8695ZM20.4619 28.5517V26.488H20.8322C20.8388 26.59 20.8444 26.6832 20.849 26.7674C20.8543 26.851 20.8602 26.934 20.8668 27.0163C20.9425 26.8385 21.0501 26.697 21.1896 26.5917C21.3298 26.4864 21.502 26.4337 21.706 26.4337C21.9134 26.4337 22.0796 26.4913 22.2047 26.6065C22.3298 26.7217 22.3956 26.8698 22.4022 27.0508V28.5517H21.9776V27.2434C21.971 27.138 21.9348 27.0482 21.869 26.9738C21.8031 26.9001 21.6995 26.8599 21.5579 26.8533C21.4592 26.8533 21.3687 26.8705 21.2864 26.9047C21.2041 26.9396 21.1334 26.9866 21.0741 27.0459C21.0149 27.1051 20.9678 27.1759 20.9329 27.2582C20.8987 27.3405 20.8816 27.431 20.8816 27.5297V28.5517H20.4619ZM24.4066 28.0037L24.7226 28.3097C24.6238 28.3986 24.5037 28.4694 24.3621 28.522C24.2206 28.5747 24.0758 28.601 23.9277 28.601C23.7763 28.601 23.6338 28.5721 23.5001 28.5141C23.3672 28.4569 23.2513 28.3795 23.1526 28.2821C23.0538 28.1853 22.9755 28.0711 22.9176 27.9395C22.8603 27.8078 22.8317 27.6679 22.8317 27.5198C22.8317 27.3717 22.8603 27.2318 22.9176 27.1002C22.9755 26.9685 23.0538 26.8533 23.1526 26.7546C23.2513 26.6559 23.3655 26.5775 23.4952 26.5196C23.6255 26.4623 23.7648 26.4337 23.9129 26.4337C24.1466 26.4337 24.3496 26.5035 24.5221 26.643C24.6952 26.7832 24.8196 26.9669 24.8953 27.194C24.7933 27.2302 24.6765 27.2746 24.5448 27.3273C24.4132 27.3799 24.2766 27.4349 24.135 27.4922C23.9935 27.5501 23.852 27.607 23.7105 27.663C23.5689 27.719 23.4373 27.77 23.3155 27.816C23.3715 27.928 23.4528 28.0175 23.5594 28.0846C23.6667 28.1524 23.7862 28.1863 23.9178 28.1863C24.0067 28.1863 24.0962 28.1699 24.1864 28.137C24.2772 28.104 24.3506 28.0596 24.4066 28.0037ZM24.3671 27.0952C24.3276 27.013 24.2651 26.9511 24.1795 26.9096C24.0939 26.8688 24.0067 26.8484 23.9178 26.8484C23.8224 26.8484 23.7342 26.8665 23.6532 26.9027C23.5729 26.9389 23.5031 26.9873 23.4439 27.0479C23.3846 27.1091 23.3376 27.1792 23.3027 27.2582C23.2684 27.3372 23.2513 27.4178 23.2513 27.5001C23.2513 27.5165 23.252 27.5281 23.2533 27.5346C23.2553 27.5412 23.2563 27.5462 23.2563 27.5495C23.3418 27.5165 23.4347 27.4793 23.5347 27.4379C23.6354 27.3971 23.7352 27.3559 23.8339 27.3145C23.9326 27.2736 24.0281 27.2341 24.1202 27.196C24.2124 27.1584 24.2947 27.1249 24.3671 27.0952ZM26.0457 28.5517V24.8144C26.0753 24.8604 26.1368 24.9483 26.2303 25.078C26.3244 25.2083 26.4331 25.3591 26.5561 25.5302C26.6799 25.7014 26.8109 25.8831 26.9491 26.0753C27.0874 26.2681 27.2174 26.4492 27.3392 26.6183C27.4609 26.7882 27.5669 26.9356 27.6571 27.0607C27.7479 27.1858 27.8082 27.268 27.8378 27.3075C27.8477 27.2911 27.8789 27.2466 27.9316 27.1742C27.9843 27.1018 28.0491 27.0113 28.1261 26.9027C28.2038 26.7941 28.292 26.6713 28.3907 26.5344C28.4895 26.3981 28.5905 26.2583 28.6939 26.1148C28.7979 25.9719 28.8999 25.8297 29 25.6882C29.1007 25.5467 29.1938 25.4173 29.2794 25.3002C29.365 25.1836 29.438 25.0819 29.4986 24.9951C29.5598 24.9075 29.6036 24.8473 29.6299 24.8144V28.5517H29.0572V26.5472C29.0572 26.5209 29.0595 26.4929 29.0641 26.4633C29.0694 26.4337 29.072 26.4123 29.072 26.3991C29.0424 26.4386 28.9954 26.5051 28.9308 26.5986C28.867 26.6927 28.7929 26.7997 28.7087 26.9195C28.6251 27.04 28.5372 27.1667 28.445 27.2996C28.3529 27.4333 28.2657 27.5593 28.1834 27.6778C28.1011 27.7963 28.0287 27.9006 27.9662 27.9908C27.9036 28.0817 27.8608 28.1452 27.8378 28.1814C27.8148 28.1518 27.7693 28.0899 27.7015 27.9958C27.6344 27.9023 27.5554 27.793 27.4646 27.6679C27.3744 27.5429 27.2789 27.4096 27.1782 27.268C27.0782 27.1265 26.9853 26.9949 26.8998 26.8731C26.8142 26.7513 26.7401 26.6466 26.6776 26.5591C26.6151 26.4722 26.5789 26.4189 26.569 26.3991C26.569 26.4123 26.5713 26.4337 26.5759 26.4633C26.5812 26.4929 26.5838 26.5209 26.5838 26.5472V28.5517H26.0457ZM31.6985 28.0037L32.0145 28.3097C31.9157 28.3986 31.7956 28.4694 31.6541 28.522C31.5126 28.5747 31.3677 28.601 31.2196 28.601C31.0682 28.601 30.9257 28.5721 30.7921 28.5141C30.6591 28.4569 30.5433 28.3795 30.4445 28.2821C30.3458 28.1853 30.2678 28.0711 30.2105 27.9395C30.1526 27.8078 30.1236 27.6679 30.1236 27.5198C30.1236 27.3717 30.1526 27.2318 30.2105 27.1002C30.2678 26.9685 30.3458 26.8533 30.4445 26.7546C30.5433 26.6559 30.6578 26.5775 30.7881 26.5196C30.9178 26.4623 31.0567 26.4337 31.2048 26.4337C31.4385 26.4337 31.6419 26.5035 31.815 26.643C31.9875 26.7832 32.1116 26.9669 32.1873 27.194C32.0853 27.2302 31.9684 27.2746 31.8368 27.3273C31.7051 27.3799 31.5685 27.4349 31.427 27.4922C31.2855 27.5501 31.1439 27.607 31.0024 27.663C30.8609 27.719 30.7292 27.77 30.6074 27.816C30.6634 27.928 30.745 28.0175 30.8523 28.0846C30.959 28.1524 31.0781 28.1863 31.2098 28.1863C31.2986 28.1863 31.3885 28.1699 31.4793 28.137C31.5695 28.104 31.6426 28.0596 31.6985 28.0037ZM31.659 27.0952C31.6195 27.013 31.557 26.9511 31.4714 26.9096C31.3858 26.8688 31.2986 26.8484 31.2098 26.8484C31.1143 26.8484 31.0264 26.8665 30.9461 26.9027C30.8652 26.9389 30.7951 26.9873 30.7358 27.0479C30.6766 27.1091 30.6295 27.1792 30.5946 27.2582C30.5604 27.3372 30.5433 27.4178 30.5433 27.5001C30.5433 27.5165 30.5439 27.5281 30.5452 27.5346C30.5472 27.5412 30.5482 27.5462 30.5482 27.5495C30.6338 27.5165 30.7269 27.4793 30.8276 27.4379C30.9277 27.3971 31.0271 27.3559 31.1258 27.3145C31.2246 27.2736 31.32 27.2341 31.4122 27.196C31.5043 27.1584 31.5866 27.1249 31.659 27.0952ZM32.4144 27.5198C32.4144 27.3586 32.4417 27.2111 32.4963 27.0775C32.5503 26.9445 32.625 26.8303 32.7205 26.7348C32.8159 26.6394 32.9288 26.5653 33.0592 26.5127C33.1888 26.46 33.3294 26.4337 33.4808 26.4337C33.5828 26.4337 33.6743 26.4459 33.7553 26.4702C33.8356 26.4952 33.9047 26.5249 33.9626 26.5591C34.0199 26.594 34.0683 26.6328 34.1078 26.6756C34.1473 26.7184 34.1769 26.7562 34.1966 26.7892V24.7156H34.6212V28.5517H34.1966V28.3986C34.1966 28.3789 34.1983 28.3565 34.2016 28.3315C34.2049 28.3071 34.2065 28.2867 34.2065 28.2703C34.1736 28.3097 34.1348 28.3483 34.09 28.3858C34.0459 28.424 33.9942 28.4595 33.935 28.4924C33.8757 28.5253 33.8076 28.5517 33.7306 28.5714C33.6529 28.5912 33.5647 28.601 33.466 28.601C33.3014 28.601 33.1543 28.5721 33.0246 28.5141C32.8943 28.4569 32.784 28.3795 32.6938 28.2821C32.603 28.1853 32.5335 28.0711 32.4855 27.9395C32.4381 27.8078 32.4144 27.6679 32.4144 27.5198ZM32.839 27.5149C32.839 27.6103 32.8564 27.6992 32.8913 27.7815C32.9255 27.8638 32.9723 27.9345 33.0315 27.9938C33.0908 28.053 33.1615 28.0998 33.2438 28.134C33.3261 28.1689 33.4166 28.1863 33.5153 28.1863C33.6141 28.1863 33.7056 28.1689 33.7898 28.134C33.8734 28.0998 33.9458 28.052 34.0071 27.9908C34.0676 27.9303 34.1144 27.8595 34.1473 27.7785C34.1802 27.6982 34.1966 27.6103 34.1966 27.5149C34.1966 27.4194 34.1802 27.3312 34.1473 27.2503C34.1144 27.17 34.0676 27.1002 34.0071 27.0409C33.9458 26.9817 33.8734 26.9346 33.7898 26.8997C33.7056 26.8655 33.6141 26.8484 33.5153 26.8484C33.4166 26.8484 33.3261 26.8655 33.2438 26.8997C33.1615 26.9346 33.0908 26.9817 33.0315 27.0409C32.9723 27.1002 32.9255 27.17 32.8913 27.2503C32.8564 27.3312 32.839 27.4194 32.839 27.5149ZM35.1594 25.6981C35.1594 25.6191 35.1883 25.5533 35.2462 25.5006C35.3035 25.4479 35.3651 25.4216 35.4309 25.4216C35.4967 25.4216 35.5576 25.4479 35.6136 25.5006C35.6695 25.5533 35.6975 25.6191 35.6975 25.6981C35.6975 25.7771 35.6695 25.8419 35.6136 25.8926C35.5576 25.9439 35.4967 25.9696 35.4309 25.9696C35.3651 25.9696 35.3035 25.9439 35.2462 25.8926C35.1883 25.8419 35.1594 25.7771 35.1594 25.6981ZM35.6333 26.488V28.5517H35.2137V26.488H35.6333ZM36.0826 27.5396C36.0826 27.3882 36.1115 27.2457 36.1695 27.112C36.2267 26.9791 36.3047 26.8622 36.4035 26.7615C36.5022 26.6615 36.6167 26.5818 36.7471 26.5226C36.8768 26.4633 37.0157 26.4337 37.1638 26.4337C37.2625 26.4337 37.353 26.4459 37.4353 26.4702C37.5176 26.4952 37.5883 26.5258 37.6476 26.5621C37.7068 26.5983 37.7546 26.6361 37.7908 26.6756C37.827 26.7151 37.8517 26.7497 37.8648 26.7793L37.8846 26.488H38.2894V28.5517H37.8648V28.29C37.8484 28.3163 37.822 28.3476 37.7858 28.3838C37.7496 28.42 37.7029 28.4536 37.6456 28.4845C37.5877 28.5161 37.5192 28.5434 37.4402 28.5665C37.3612 28.5895 37.2707 28.601 37.1687 28.601C37.0107 28.601 36.8652 28.5721 36.7323 28.5141C36.5986 28.4569 36.4841 28.3795 36.3887 28.2821C36.2932 28.1853 36.2185 28.0728 36.1645 27.9444C36.1099 27.816 36.0826 27.6811 36.0826 27.5396ZM36.5071 27.5149C36.5071 27.6103 36.5246 27.6992 36.5595 27.7815C36.5937 27.8638 36.6404 27.9345 36.6997 27.9938C36.7589 28.053 36.8297 28.0998 36.912 28.134C36.9943 28.1689 37.0848 28.1863 37.1835 28.1863C37.2823 28.1863 37.3738 28.1689 37.458 28.134C37.5416 28.0998 37.614 28.052 37.6752 27.9908C37.7358 27.9303 37.7825 27.8595 37.8155 27.7785C37.8484 27.6982 37.8648 27.6103 37.8648 27.5149C37.8648 27.4194 37.8484 27.3312 37.8155 27.2503C37.7825 27.17 37.7358 27.1002 37.6752 27.0409C37.614 26.9817 37.5416 26.9346 37.458 26.8997C37.3738 26.8655 37.2823 26.8484 37.1835 26.8484C37.0848 26.8484 36.9943 26.8655 36.912 26.8997C36.8297 26.9346 36.7589 26.9817 36.6997 27.0409C36.6404 27.1002 36.5937 27.17 36.5595 27.2503C36.5246 27.3312 36.5071 27.4194 36.5071 27.5149ZM39.6668 28.5517V24.9723H40.5654C40.9274 24.9723 41.2335 25.0266 41.4836 25.1353C41.7338 25.2439 41.9369 25.3861 42.0929 25.5618C42.2495 25.7382 42.3634 25.9357 42.4345 26.1543C42.5049 26.3735 42.5402 26.5917 42.5402 26.8089C42.5402 27.0755 42.4924 27.3164 42.397 27.5317C42.3015 27.7476 42.1715 27.9312 42.007 28.0826C41.8424 28.234 41.6515 28.3499 41.4343 28.4302C41.217 28.5112 40.9866 28.5517 40.7431 28.5517H39.6668ZM40.205 28.0382H40.6641C40.855 28.0382 41.0321 28.0102 41.1953 27.9543C41.3579 27.8983 41.4994 27.8167 41.6199 27.7094C41.7397 27.6028 41.8332 27.4711 41.9003 27.3145C41.9681 27.1584 42.002 26.9784 42.002 26.7743C42.002 26.5571 41.9642 26.3679 41.8885 26.2066C41.8128 26.0453 41.714 25.911 41.5923 25.8037C41.4705 25.6971 41.3329 25.6181 41.1795 25.5668C41.0268 25.5161 40.8714 25.4907 40.7135 25.4907H40.205V28.0382ZM44.3965 28.0037L44.7124 28.3097C44.6137 28.3986 44.4936 28.4694 44.352 28.522C44.2105 28.5747 44.0657 28.601 43.9176 28.601C43.7662 28.601 43.624 28.5721 43.491 28.5141C43.3574 28.4569 43.2412 28.3795 43.1425 28.2821C43.0437 28.1853 42.9657 28.0711 42.9085 27.9395C42.8505 27.8078 42.8216 27.6679 42.8216 27.5198C42.8216 27.3717 42.8505 27.2318 42.9085 27.1002C42.9657 26.9685 43.0437 26.8533 43.1425 26.7546C43.2412 26.6559 43.3557 26.5775 43.4861 26.5196C43.6158 26.4623 43.7547 26.4337 43.9028 26.4337C44.1364 26.4337 44.3398 26.5035 44.513 26.643C44.6854 26.7832 44.8095 26.9669 44.8852 27.194C44.7832 27.2302 44.6663 27.2746 44.5347 27.3273C44.403 27.3799 44.2665 27.4349 44.1249 27.4922C43.9834 27.5501 43.8419 27.607 43.7003 27.663C43.5588 27.719 43.4272 27.77 43.3054 27.816C43.3613 27.928 43.443 28.0175 43.5503 28.0846C43.6569 28.1524 43.776 28.1863 43.9077 28.1863C43.9966 28.1863 44.0864 28.1699 44.1773 28.137C44.2674 28.104 44.3405 28.0596 44.3965 28.0037ZM44.357 27.0952C44.3175 27.013 44.2549 26.9511 44.1694 26.9096C44.0838 26.8688 43.9966 26.8484 43.9077 26.8484C43.8122 26.8484 43.7244 26.8665 43.6441 26.9027C43.5631 26.9389 43.493 26.9873 43.4337 27.0479C43.3745 27.1091 43.3278 27.1792 43.2935 27.2582C43.2586 27.3372 43.2412 27.4178 43.2412 27.5001C43.2412 27.5165 43.2422 27.5281 43.2442 27.5346C43.2455 27.5412 43.2461 27.5462 43.2461 27.5495C43.3317 27.5165 43.4249 27.4793 43.5256 27.4379C43.6256 27.3971 43.725 27.3559 43.8238 27.3145C43.9225 27.2736 44.018 27.2341 44.1101 27.196C44.2023 27.1584 44.2846 27.1249 44.357 27.0952ZM45.1074 27.5396C45.1074 27.3882 45.1363 27.2457 45.1943 27.112C45.2515 26.9791 45.3296 26.8622 45.4283 26.7615C45.527 26.6615 45.6412 26.5818 45.7709 26.5226C45.9013 26.4633 46.0405 26.4337 46.1886 26.4337C46.2873 26.4337 46.3778 26.4459 46.4601 26.4702C46.5424 26.4952 46.6132 26.5258 46.6724 26.5621C46.7317 26.5983 46.7794 26.6361 46.8156 26.6756C46.8518 26.7151 46.8765 26.7497 46.8896 26.7793L46.9094 26.488H47.3142V28.5517H46.8896V28.29C46.8732 28.3163 46.8469 28.3476 46.8106 28.3838C46.7744 28.42 46.7277 28.4536 46.6704 28.4845C46.6125 28.5161 46.544 28.5434 46.4651 28.5665C46.3861 28.5895 46.2956 28.601 46.1935 28.601C46.0355 28.601 45.8901 28.5721 45.7571 28.5141C45.6235 28.4569 45.5089 28.3795 45.4135 28.2821C45.318 28.1853 45.2433 28.0728 45.1893 27.9444C45.1347 27.816 45.1074 27.6811 45.1074 27.5396ZM45.532 27.5149C45.532 27.6103 45.5494 27.6992 45.5843 27.7815C45.6185 27.8638 45.6653 27.9345 45.7245 27.9938C45.7838 28.053 45.8545 28.0998 45.9368 28.134C46.0191 28.1689 46.1096 28.1863 46.2083 28.1863C46.3071 28.1863 46.3986 28.1689 46.4828 28.134C46.5664 28.0998 46.6388 28.052 46.7001 27.9908C46.7606 27.9303 46.8074 27.8595 46.8403 27.7785C46.8732 27.6982 46.8896 27.6103 46.8896 27.5149C46.8896 27.4194 46.8732 27.3312 46.8403 27.2503C46.8074 27.17 46.7606 27.1002 46.7001 27.0409C46.6388 26.9817 46.5664 26.9346 46.4828 26.8997C46.3986 26.8655 46.3071 26.8484 46.2083 26.8484C46.1096 26.8484 46.0191 26.8655 45.9368 26.8997C45.8545 26.9346 45.7838 26.9817 45.7245 27.0409C45.6653 27.1002 45.6185 27.17 45.5843 27.2503C45.5494 27.3312 45.532 27.4194 45.532 27.5149ZM48.3312 24.7156V28.5517H47.9116V24.7156H48.3312ZM50.0789 26.6707L49.8568 26.9669C49.8535 26.9636 49.842 26.9554 49.8222 26.9422C49.8025 26.929 49.7768 26.9159 49.7452 26.9027C49.7143 26.8895 49.6784 26.8774 49.6376 26.8662C49.5961 26.8543 49.554 26.8484 49.5112 26.8484C49.4552 26.8484 49.4003 26.8616 49.3463 26.8879C49.2917 26.9142 49.2643 26.9636 49.2643 27.036C49.2643 27.0985 49.2864 27.1496 49.3305 27.1891C49.3753 27.2285 49.4305 27.2638 49.4964 27.2947C49.5622 27.3263 49.6339 27.3586 49.7116 27.3915C49.7886 27.4244 49.8601 27.4645 49.9259 27.5119C49.9917 27.56 50.0467 27.6196 50.0908 27.6906C50.1355 27.7611 50.1579 27.8506 50.1579 27.9592C50.1579 28.1435 50.0944 28.2956 49.9674 28.4154C49.841 28.5359 49.6675 28.5961 49.447 28.5961C49.3186 28.5961 49.1929 28.5737 49.0698 28.529C48.9461 28.4848 48.8463 28.42 48.7706 28.3344C48.7937 28.3114 48.8193 28.2818 48.8477 28.2456C48.8753 28.2094 48.9029 28.1748 48.9306 28.1419C48.9589 28.109 48.9823 28.0817 49.0007 28.0599C49.0185 28.0389 49.029 28.0283 49.0323 28.0283C49.0323 28.0316 49.0448 28.0415 49.0698 28.058C49.0942 28.0744 49.1261 28.0915 49.1656 28.1093C49.2051 28.1277 49.2495 28.1442 49.2989 28.1587C49.3483 28.1738 49.3976 28.1814 49.447 28.1814C49.526 28.1814 49.5935 28.1616 49.6494 28.1221C49.7054 28.0826 49.7333 28.03 49.7333 27.9642C49.7333 27.9049 49.7113 27.8578 49.6672 27.823C49.6224 27.7887 49.5671 27.7568 49.5013 27.7272C49.4355 27.6976 49.3631 27.667 49.2841 27.6354C49.2051 27.6044 49.1327 27.5643 49.0669 27.5149C49.001 27.4655 48.9461 27.4036 48.902 27.3293C48.8572 27.2555 48.8348 27.1594 48.8348 27.0409C48.8348 26.929 48.8555 26.8352 48.897 26.7595C48.9378 26.6838 48.9902 26.622 49.054 26.5739C49.1185 26.5265 49.1903 26.4919 49.2693 26.4702C49.3483 26.4492 49.424 26.4386 49.4964 26.4386C49.5918 26.4386 49.6939 26.4584 49.8025 26.4979C49.9111 26.5374 50.0032 26.595 50.0789 26.6707Z" fill="#102E44"/>
</g>
</g>
</g>
</g>
</g>
</g>
</g>
<path d="M0 19.375C0 8.67454 8.67454 0 19.375 0C26.1556 0 32.1228 3.48327 35.5846 8.75794H34.9451C31.5518 3.79129 25.844 0.531402 19.375 0.531402C8.96799 0.531402 0.531402 8.96799 0.531402 19.375C0.531402 29.782 8.96799 38.2186 19.375 38.2186C25.8441 38.2186 31.5519 34.9587 34.9451 29.9921H35.5846C32.1227 35.2667 26.1556 38.75 19.375 38.75C8.67454 38.75 0 30.0754 0 19.375Z" fill="#102E44"/>
</g>
<defs>
<clipPath id="clip0_57_563">
<rect width="61.842" height="38.6513" fill="white" transform="scale(1.00255)"/>
</clipPath>
<clipPath id="clip1_57_563">
<rect width="38.2184" height="18.405" fill="white" transform="translate(11.8419 10.149) scale(1.00255)"/>
</clipPath>
<clipPath id="clip2_57_563">
<rect width="38.2184" height="18.405" fill="white" transform="translate(11.8419 10.149) scale(1.00255)"/>
</clipPath>
<clipPath id="clip3_57_563">
<rect width="38.2184" height="18.405" fill="white" transform="translate(11.8419 10.149) scale(1.00255)"/>
</clipPath>
<clipPath id="clip4_57_563">
<rect width="38.2184" height="18.405" fill="white" transform="translate(11.8419 10.149) scale(1.00255)"/>
</clipPath>
<clipPath id="clip5_57_563">
<rect width="38.2184" height="18.405" fill="white" transform="translate(11.8419 10.149) scale(1.00255)"/>
</clipPath>
<clipPath id="clip6_57_563">
<rect width="38.2184" height="11.7546" fill="white" transform="translate(11.8419 10.149) scale(1.00255)"/>
</clipPath>
<clipPath id="clip7_57_563">
<rect width="38.2184" height="11.7546" fill="white" transform="translate(11.8419 10.149) scale(1.00255)"/>
</clipPath>
<clipPath id="clip8_57_563">
<rect width="38.2184" height="3.87551" fill="white" transform="translate(11.8419 24.7156) scale(1.00255)"/>
</clipPath>
<clipPath id="clip9_57_563">
<rect width="38.2184" height="3.87551" fill="white" transform="translate(11.8419 24.7156) scale(1.00255)"/>
</clipPath>
</defs>
</svg>
