<svg width="37" height="37" viewBox="0 0 37 37" fill="none" xmlns="http://www.w3.org/2000/svg">
<g filter="url(#filter0_d_57_552)">
<circle cx="18.4971" cy="18.4971" r="18.4971" fill="white"/>
<path d="M16.3593 0.0706386C12.8393 0.504316 9.73129 1.79812 6.8907 4.02433C6.13177 4.61702 4.36092 6.43846 3.761 7.23354C1.86005 9.77055 0.65298 12.5967 0.161479 15.6396C-0.0192199 16.76 -0.0553596 19.521 0.0891994 20.7353C0.573472 24.6963 2.30818 28.3681 5.06203 31.252C7.91707 34.2372 11.3793 36.0803 15.4847 36.7958C16.7424 37.0127 19.4095 37.0633 20.7395 36.8898C28.7047 35.8924 35.0797 29.9871 36.6699 22.1448C37.0096 20.4824 37.0963 17.9237 36.8867 16.1817C35.8459 7.819 29.1672 1.14038 20.8045 0.099551C19.8287 -0.0160984 17.2411 -0.0377818 16.3593 0.0706386ZM19.2577 9.13449C19.4529 9.25013 19.648 9.45252 19.7709 9.66213L19.9733 10.0018L19.995 13.4857L20.0167 16.9696L23.5005 16.9913L26.9844 17.0129L27.3241 17.2153C28.3143 17.7936 28.3143 19.1958 27.3241 19.774L26.9844 19.9764L23.5005 19.9981L20.0167 20.0198L19.995 23.5036L19.9733 26.9875L19.7709 27.3272C19.1927 28.3175 17.7905 28.3175 17.2122 27.3272L17.0098 26.9875L16.9881 23.5036L16.9665 20.0198L13.4826 19.9981L9.99872 19.9764L9.65901 19.774C8.66878 19.1958 8.66878 17.7936 9.65901 17.2153L9.99872 17.0129L13.4826 16.9913L16.9665 16.9696L16.9881 13.4857L17.0098 10.0018L17.205 9.66213C17.6459 8.92487 18.5132 8.70081 19.2577 9.13449Z" fill="#102E44"/>
</g>
<defs>
<filter id="filter0_d_57_552" x="-4.00011" y="-2.00005" width="45.0002" height="44.9944" filterUnits="userSpaceOnUse" color-interpolation-filters="sRGB">
<feFlood flood-opacity="0" result="BackgroundImageFix"/>
<feColorMatrix in="SourceAlpha" type="matrix" values="0 0 0 0 0 0 0 0 0 0 0 0 0 0 0 0 0 0 127 0" result="hardAlpha"/>
<feOffset dy="2"/>
<feGaussianBlur stdDeviation="2"/>
<feComposite in2="hardAlpha" operator="out"/>
<feColorMatrix type="matrix" values="0 0 0 0 0.0745098 0 0 0 0 0.196078 0 0 0 0 0.431373 0 0 0 1 0"/>
<feBlend mode="normal" in2="BackgroundImageFix" result="effect1_dropShadow_57_552"/>
<feBlend mode="normal" in="SourceGraphic" in2="effect1_dropShadow_57_552" result="shape"/>
</filter>
</defs>
</svg>
