<svg width="294" height="184" viewBox="0 0 294 184" fill="none" xmlns="http://www.w3.org/2000/svg">
<g clip-path="url(#clip0_57_66)">
<g clip-path="url(#clip1_57_66)">
<g clip-path="url(#clip2_57_66)">
<g clip-path="url(#clip3_57_66)">
<g clip-path="url(#clip4_57_66)">
<g clip-path="url(#clip5_57_66)">
<g clip-path="url(#clip6_57_66)">
<g clip-path="url(#clip7_57_66)">
<path d="M110.107 76.1048C110.107 80.1956 109.455 83.9557 108.153 87.385C106.86 90.8041 105.029 93.745 102.658 96.2076C100.297 98.6804 97.4527 100.599 94.1251 101.962C90.8078 103.326 87.1393 104.008 83.1198 104.008C79.1002 104.008 75.4368 103.326 72.1296 101.962C68.8224 100.599 65.9884 98.6804 63.6275 96.2076C61.2565 93.745 59.4248 90.8041 58.1325 87.385C56.8299 83.9557 56.1787 80.1956 56.1787 76.1048C56.1787 72.0039 56.8299 68.2438 58.1325 64.8247C59.4248 61.4055 61.2565 58.4545 63.6275 55.9715C65.9884 53.4987 68.8224 51.5704 72.1296 50.1864C75.4368 48.8127 79.1002 48.1258 83.1198 48.1258C87.1393 48.1258 90.8078 48.8127 94.1251 50.1864C97.4527 51.5704 100.297 53.4987 102.658 55.9715C105.029 58.4545 106.86 61.4055 108.153 64.8247C109.455 68.2438 110.107 72.0039 110.107 76.1048ZM102.505 76.1048C102.505 72.7467 102.047 69.7295 101.131 67.0532C100.216 64.3871 98.9181 62.1331 97.239 60.2913C95.56 58.4392 93.5248 57.0197 91.1334 56.0326C88.742 55.0455 86.0708 54.552 83.1198 54.552C80.1891 54.552 77.5331 55.0455 75.1519 56.0326C72.7605 57.0197 70.7152 58.4392 69.0158 60.2913C67.3265 62.1331 66.024 64.3871 65.1081 67.0532C64.1923 69.7295 63.7344 72.7467 63.7344 76.1048C63.7344 79.4629 64.1923 82.4699 65.1081 85.1259C66.024 87.7818 67.3265 90.0358 69.0158 91.8879C70.7152 93.7297 72.7605 95.1391 75.1519 96.116C77.5331 97.0929 80.1891 97.5814 83.1198 97.5814C86.0708 97.5814 88.742 97.0929 91.1334 96.116C93.5248 95.1391 95.56 93.7297 97.239 91.8879C98.9181 90.0358 100.216 87.7818 101.131 85.1259C102.047 82.4699 102.505 79.4629 102.505 76.1048ZM147.107 83.6605C147.463 84.2711 147.778 84.9122 148.053 85.5838C148.318 86.2554 148.577 86.9372 148.832 87.6292C149.086 86.9169 149.351 86.2351 149.625 85.5838C149.91 84.9326 150.231 84.2762 150.587 83.6148L169.087 50.0033C169.423 49.4131 169.769 49.0569 170.125 48.9348C170.481 48.8025 170.99 48.7364 171.651 48.7364H177.101V103.428H170.613V63.2372C170.613 62.7081 170.629 62.1382 170.659 61.5276C170.68 60.9171 170.715 60.2913 170.766 59.6502L152.037 93.8417C151.396 94.9916 150.506 95.5665 149.366 95.5665H148.297C147.147 95.5665 146.257 94.9916 145.626 93.8417L126.47 59.5433C126.541 60.2048 126.597 60.8509 126.638 61.4819C126.678 62.1229 126.699 62.7081 126.699 63.2372V103.428H120.211V48.7364H125.661C126.322 48.7364 126.831 48.8025 127.187 48.9348C127.543 49.0569 127.889 49.4131 128.225 50.0033L147.107 83.6605ZM237.821 76.1048C237.821 80.1956 237.17 83.92 235.867 87.2781C234.575 90.6362 232.743 93.511 230.372 95.9023C228.011 98.2937 225.177 100.146 221.87 101.458C218.563 102.771 214.9 103.428 210.88 103.428H190.426V48.7364H210.88C214.9 48.7364 218.563 49.3927 221.87 50.7054C225.177 52.0181 228.011 53.8753 230.372 56.2768C232.743 58.6784 234.575 61.5582 235.867 64.9163C237.17 68.2744 237.821 72.0039 237.821 76.1048ZM230.22 76.1048C230.22 72.7467 229.762 69.7448 228.846 67.099C227.93 64.4533 226.633 62.2145 224.953 60.3828C223.274 58.5512 221.239 57.1519 218.848 56.1852C216.456 55.2185 213.801 54.7351 210.88 54.7351H197.86V97.4287H210.88C213.801 97.4287 216.456 96.9454 218.848 95.9786C221.239 95.0119 223.274 93.6229 224.953 91.8116C226.633 89.99 227.93 87.7564 228.846 85.1106C229.762 82.4649 230.22 79.4629 230.22 76.1048Z" fill="white"/>
</g>
</g>
<g clip-path="url(#clip8_57_66)">
<g clip-path="url(#clip9_57_66)">
<path d="M56.154 126.915C56.154 125.745 56.3803 124.632 56.8329 123.577C57.2855 122.525 57.9067 121.601 58.6964 120.805C59.483 120.009 60.3991 119.38 61.4448 118.918C62.4905 118.459 63.6142 118.23 64.816 118.23C66.0022 118.23 67.1228 118.459 68.1778 118.918C69.2297 119.38 70.1506 120.009 70.9403 120.805C71.7269 121.601 72.3512 122.525 72.8132 123.577C73.272 124.632 73.5015 125.745 73.5015 126.915C73.5015 128.117 73.272 129.241 72.8132 130.287C72.3512 131.332 71.7269 132.248 70.9403 133.035C70.1506 133.825 69.2297 134.446 68.1778 134.899C67.1228 135.351 66.0022 135.577 64.816 135.577C63.6142 135.577 62.4905 135.351 61.4448 134.899C60.3991 134.446 59.483 133.825 58.6964 133.035C57.9067 132.248 57.2855 131.332 56.8329 130.287C56.3803 129.241 56.154 128.117 56.154 126.915ZM58.7058 126.939C58.7058 127.797 58.8665 128.604 59.188 129.36C59.5064 130.118 59.9465 130.778 60.5084 131.34C61.0703 131.902 61.7258 132.347 62.4749 132.674C63.2241 133.002 64.02 133.166 64.8628 133.166C65.7056 133.166 66.4985 133.002 67.2414 132.674C67.9812 132.347 68.6289 131.902 69.1845 131.34C69.737 130.778 70.1724 130.118 70.4908 129.36C70.8123 128.604 70.9731 127.789 70.9731 126.915C70.9731 126.057 70.8123 125.249 70.4908 124.49C70.1724 123.735 69.7323 123.076 69.1704 122.514C68.6086 121.952 67.9577 121.507 67.218 121.18C66.4751 120.852 65.6822 120.688 64.8394 120.688C63.9966 120.688 63.2007 120.852 62.4515 121.18C61.7024 121.507 61.0515 121.952 60.499 122.514C59.9434 123.076 59.5064 123.739 59.188 124.504C58.8665 125.269 58.7058 126.08 58.7058 126.939ZM75.468 135.39V125.604H77.2238C77.255 126.088 77.2831 126.53 77.3081 126.929C77.3299 127.326 77.3564 127.719 77.3877 128.109C77.7466 127.267 78.257 126.595 78.9187 126.096C79.5836 125.597 80.3999 125.347 81.3675 125.347C82.3508 125.347 83.1389 125.62 83.732 126.166C84.3251 126.713 84.6372 127.415 84.6685 128.273V135.39H82.6551V129.186C82.6239 128.687 82.4522 128.261 82.1401 127.908C81.8279 127.558 81.3363 127.368 80.6652 127.337C80.197 127.337 79.7678 127.418 79.3776 127.58C78.9874 127.746 78.6518 127.969 78.3709 128.25C78.09 128.531 77.8668 128.866 77.7014 129.257C77.539 129.647 77.4579 130.076 77.4579 130.544V135.39H75.468ZM89.3975 117.2V135.39H87.4075V117.2H89.3975ZM91.9727 121.859C91.9727 121.484 92.1084 121.172 92.38 120.922C92.6547 120.673 92.9481 120.548 93.2603 120.548C93.5724 120.548 93.8611 120.673 94.1265 120.922C94.3918 121.172 94.5244 121.484 94.5244 121.859C94.5244 122.233 94.3918 122.541 94.1265 122.781C93.8611 123.025 93.5724 123.146 93.2603 123.146C92.9481 123.146 92.6547 123.025 92.38 122.781C92.1084 122.541 91.9727 122.233 91.9727 121.859ZM94.2201 125.604V135.39H92.2302V125.604H94.2201ZM97.0294 135.39V125.604H98.7852C98.8164 126.088 98.843 126.53 98.8648 126.929C98.8898 127.326 98.9179 127.719 98.9491 128.109C99.3081 127.267 99.8184 126.595 100.48 126.096C101.145 125.597 101.961 125.347 102.929 125.347C103.912 125.347 104.7 125.62 105.293 126.166C105.887 126.713 106.199 127.415 106.23 128.273V135.39H104.217V129.186C104.185 128.687 104.014 128.261 103.702 127.908C103.389 127.558 102.898 127.368 102.227 127.337C101.758 127.337 101.329 127.418 100.939 127.58C100.549 127.746 100.213 127.969 99.9324 128.25C99.6514 128.531 99.4283 128.866 99.2628 129.257C99.1005 129.647 99.0193 130.076 99.0193 130.544V135.39H97.0294ZM115.735 132.792L117.233 134.243C116.765 134.664 116.195 135 115.524 135.25C114.853 135.499 114.166 135.624 113.464 135.624C112.746 135.624 112.07 135.487 111.436 135.212C110.806 134.941 110.257 134.574 109.788 134.112C109.32 133.653 108.949 133.111 108.674 132.487C108.402 131.863 108.267 131.2 108.267 130.497C108.267 129.795 108.402 129.132 108.674 128.507C108.949 127.883 109.32 127.337 109.788 126.869C110.257 126.4 110.798 126.029 111.413 125.754C112.031 125.483 112.691 125.347 113.394 125.347C114.502 125.347 115.465 125.678 116.283 126.34C117.103 127.004 117.693 127.875 118.052 128.952C117.569 129.124 117.015 129.335 116.39 129.584C115.766 129.834 115.118 130.095 114.447 130.366C113.776 130.641 113.105 130.911 112.434 131.176C111.763 131.442 111.138 131.683 110.561 131.902C110.826 132.433 111.212 132.857 111.717 133.175C112.226 133.497 112.793 133.658 113.417 133.658C113.838 133.658 114.263 133.58 114.691 133.424C115.121 133.268 115.469 133.057 115.735 132.792ZM115.547 128.484C115.36 128.094 115.064 127.8 114.658 127.604C114.252 127.41 113.838 127.313 113.417 127.313C112.964 127.313 112.546 127.399 112.162 127.571C111.781 127.743 111.451 127.972 111.17 128.259C110.889 128.549 110.665 128.882 110.5 129.257C110.338 129.631 110.257 130.013 110.257 130.404C110.257 130.482 110.26 130.536 110.266 130.568C110.275 130.599 110.28 130.622 110.28 130.638C110.686 130.482 111.126 130.305 111.6 130.109C112.078 129.915 112.551 129.72 113.019 129.523C113.487 129.33 113.94 129.143 114.377 128.962C114.814 128.784 115.204 128.624 115.547 128.484ZM123.507 135.39V117.668C123.648 117.887 123.939 118.303 124.383 118.918C124.829 119.536 125.344 120.251 125.928 121.063C126.515 121.874 127.136 122.736 127.791 123.647C128.447 124.562 129.063 125.42 129.641 126.222C130.218 127.028 130.721 127.727 131.148 128.32C131.579 128.913 131.865 129.303 132.005 129.491C132.052 129.413 132.2 129.202 132.45 128.859C132.7 128.515 133.007 128.086 133.373 127.571C133.741 127.056 134.159 126.474 134.627 125.824C135.096 125.178 135.575 124.515 136.065 123.835C136.558 123.157 137.042 122.483 137.516 121.812C137.994 121.141 138.436 120.527 138.841 119.972C139.247 119.419 139.594 118.937 139.881 118.525C140.171 118.11 140.379 117.824 140.503 117.668V135.39H137.788V125.885C137.788 125.76 137.799 125.628 137.821 125.487C137.846 125.347 137.858 125.245 137.858 125.183C137.718 125.37 137.494 125.686 137.188 126.129C136.886 126.575 136.535 127.082 136.135 127.651C135.739 128.222 135.322 128.823 134.885 129.453C134.448 130.087 134.034 130.685 133.644 131.246C133.254 131.808 132.911 132.303 132.614 132.731C132.317 133.161 132.115 133.463 132.005 133.634C131.896 133.494 131.681 133.2 131.359 132.754C131.041 132.311 130.666 131.793 130.235 131.2C129.808 130.607 129.355 129.974 128.878 129.303C128.403 128.632 127.963 128.008 127.557 127.43C127.151 126.853 126.8 126.357 126.504 125.942C126.207 125.529 126.036 125.277 125.989 125.183C125.989 125.245 126 125.347 126.021 125.487C126.046 125.628 126.059 125.76 126.059 125.885V135.39H123.507ZM150.313 132.792L151.811 134.243C151.343 134.664 150.773 135 150.102 135.25C149.431 135.499 148.744 135.624 148.042 135.624C147.324 135.624 146.648 135.487 146.014 135.212C145.384 134.941 144.834 134.574 144.366 134.112C143.898 133.653 143.528 133.111 143.257 132.487C142.982 131.863 142.845 131.2 142.845 130.497C142.845 129.795 142.982 129.132 143.257 128.507C143.528 127.883 143.898 127.337 144.366 126.869C144.834 126.4 145.378 126.029 145.996 125.754C146.611 125.483 147.269 125.347 147.972 125.347C149.08 125.347 150.044 125.678 150.865 126.34C151.683 127.004 152.271 127.875 152.63 128.952C152.147 129.124 151.592 129.335 150.968 129.584C150.344 129.834 149.696 130.095 149.025 130.366C148.354 130.641 147.683 130.911 147.012 131.176C146.341 131.442 145.716 131.683 145.139 131.902C145.404 132.433 145.791 132.857 146.3 133.175C146.806 133.497 147.371 133.658 147.995 133.658C148.416 133.658 148.842 133.58 149.273 133.424C149.701 133.268 150.047 133.057 150.313 132.792ZM150.125 128.484C149.938 128.094 149.642 127.8 149.236 127.604C148.83 127.41 148.416 127.313 147.995 127.313C147.542 127.313 147.126 127.399 146.745 127.571C146.361 127.743 146.028 127.972 145.748 128.259C145.467 128.549 145.243 128.882 145.078 129.257C144.916 129.631 144.834 130.013 144.834 130.404C144.834 130.482 144.838 130.536 144.844 130.568C144.853 130.599 144.858 130.622 144.858 130.638C145.264 130.482 145.705 130.305 146.183 130.109C146.657 129.915 147.129 129.72 147.597 129.523C148.065 129.33 148.518 129.143 148.955 128.962C149.392 128.784 149.782 128.624 150.125 128.484ZM153.707 130.497C153.707 129.733 153.837 129.033 154.096 128.4C154.352 127.769 154.706 127.228 155.159 126.775C155.611 126.322 156.147 125.971 156.765 125.721C157.38 125.472 158.046 125.347 158.764 125.347C159.248 125.347 159.682 125.405 160.066 125.52C160.446 125.639 160.774 125.779 161.049 125.942C161.32 126.107 161.55 126.291 161.737 126.494C161.924 126.697 162.065 126.876 162.159 127.032V117.2H164.172V135.39H162.159V134.664C162.159 134.571 162.166 134.465 162.182 134.346C162.198 134.231 162.205 134.134 162.205 134.056C162.049 134.243 161.865 134.426 161.653 134.604C161.444 134.785 161.199 134.953 160.918 135.109C160.637 135.265 160.314 135.39 159.949 135.484C159.58 135.577 159.162 135.624 158.694 135.624C157.913 135.624 157.216 135.487 156.601 135.212C155.983 134.941 155.46 134.574 155.032 134.112C154.602 133.653 154.272 133.111 154.044 132.487C153.82 131.863 153.707 131.2 153.707 130.497ZM155.721 130.474C155.721 130.926 155.803 131.348 155.969 131.738C156.131 132.128 156.353 132.464 156.634 132.745C156.915 133.026 157.25 133.247 157.64 133.41C158.03 133.575 158.46 133.658 158.928 133.658C159.396 133.658 159.83 133.575 160.23 133.41C160.626 133.247 160.969 133.021 161.26 132.731C161.547 132.444 161.768 132.108 161.924 131.724C162.081 131.343 162.159 130.926 162.159 130.474C162.159 130.021 162.081 129.603 161.924 129.219C161.768 128.838 161.547 128.507 161.26 128.226C160.969 127.945 160.626 127.722 160.23 127.557C159.83 127.395 159.396 127.313 158.928 127.313C158.46 127.313 158.03 127.395 157.64 127.557C157.25 127.722 156.915 127.945 156.634 128.226C156.353 128.507 156.131 128.838 155.969 129.219C155.803 129.603 155.721 130.021 155.721 130.474ZM166.724 121.859C166.724 121.484 166.861 121.172 167.136 120.922C167.407 120.673 167.699 120.548 168.011 120.548C168.323 120.548 168.612 120.673 168.877 120.922C169.143 121.172 169.275 121.484 169.275 121.859C169.275 122.233 169.143 122.541 168.877 122.781C168.612 123.025 168.323 123.146 168.011 123.146C167.699 123.146 167.407 123.025 167.136 122.781C166.861 122.541 166.724 122.233 166.724 121.859ZM168.971 125.604V135.39H166.981V125.604H168.971ZM171.102 130.591C171.102 129.873 171.239 129.197 171.514 128.564C171.785 127.933 172.155 127.379 172.623 126.901C173.091 126.427 173.635 126.049 174.253 125.768C174.868 125.487 175.526 125.347 176.229 125.347C176.697 125.347 177.126 125.405 177.516 125.52C177.906 125.639 178.242 125.784 178.523 125.956C178.804 126.127 179.03 126.307 179.202 126.494C179.373 126.681 179.49 126.845 179.553 126.986L179.647 125.604H181.566V135.39H179.553V134.149C179.475 134.274 179.35 134.423 179.178 134.594C179.007 134.766 178.785 134.925 178.513 135.072C178.239 135.222 177.914 135.351 177.54 135.46C177.165 135.57 176.736 135.624 176.252 135.624C175.503 135.624 174.813 135.487 174.182 135.212C173.549 134.941 173.006 134.574 172.553 134.112C172.1 133.653 171.746 133.119 171.49 132.511C171.231 131.902 171.102 131.262 171.102 130.591ZM173.115 130.474C173.115 130.926 173.198 131.348 173.363 131.738C173.525 132.128 173.747 132.464 174.028 132.745C174.309 133.026 174.644 133.247 175.035 133.41C175.425 133.575 175.854 133.658 176.322 133.658C176.79 133.658 177.224 133.575 177.624 133.41C178.02 133.247 178.364 133.021 178.654 132.731C178.941 132.444 179.163 132.108 179.319 131.724C179.475 131.343 179.553 130.926 179.553 130.474C179.553 130.021 179.475 129.603 179.319 129.219C179.163 128.838 178.941 128.507 178.654 128.226C178.364 127.945 178.02 127.722 177.624 127.557C177.224 127.395 176.79 127.313 176.322 127.313C175.854 127.313 175.425 127.395 175.035 127.557C174.644 127.722 174.309 127.945 174.028 128.226C173.747 128.507 173.525 128.838 173.363 129.219C173.198 129.603 173.115 130.021 173.115 130.474ZM188.098 135.39V118.417H192.359C194.075 118.417 195.527 118.675 196.713 119.19C197.899 119.705 198.862 120.379 199.602 121.213C200.345 122.049 200.885 122.986 201.222 124.022C201.556 125.061 201.723 126.096 201.723 127.126C201.723 128.39 201.497 129.533 201.044 130.553C200.591 131.577 199.975 132.448 199.195 133.166C198.414 133.884 197.509 134.433 196.479 134.814C195.449 135.198 194.356 135.39 193.201 135.39H188.098ZM190.65 132.955H192.827C193.732 132.955 194.572 132.823 195.346 132.557C196.117 132.292 196.788 131.905 197.359 131.396C197.927 130.891 198.371 130.266 198.689 129.523C199.01 128.784 199.171 127.93 199.171 126.962C199.171 125.932 198.992 125.035 198.633 124.27C198.274 123.505 197.806 122.868 197.228 122.36C196.651 121.854 195.998 121.479 195.271 121.236C194.547 120.996 193.81 120.875 193.061 120.875H190.65V132.955ZM210.526 132.792L212.024 134.243C211.556 134.664 210.986 135 210.315 135.25C209.644 135.499 208.957 135.624 208.255 135.624C207.537 135.624 206.862 135.487 206.232 135.212C205.598 134.941 205.047 134.574 204.579 134.112C204.111 133.653 203.741 133.111 203.469 132.487C203.195 131.863 203.057 131.2 203.057 130.497C203.057 129.795 203.195 129.132 203.469 128.507C203.741 127.883 204.111 127.337 204.579 126.869C205.047 126.4 205.59 126.029 206.209 125.754C206.823 125.483 207.482 125.347 208.184 125.347C209.293 125.347 210.257 125.678 211.078 126.34C211.896 127.004 212.484 127.875 212.843 128.952C212.359 129.124 211.805 129.335 211.181 129.584C210.557 129.834 209.909 130.095 209.238 130.366C208.567 130.641 207.896 130.911 207.225 131.176C206.553 131.442 205.929 131.683 205.352 131.902C205.617 132.433 206.004 132.857 206.513 133.175C207.019 133.497 207.584 133.658 208.208 133.658C208.629 133.658 209.055 133.58 209.486 133.424C209.914 133.268 210.26 133.057 210.526 132.792ZM210.338 128.484C210.151 128.094 209.854 127.8 209.449 127.604C209.043 127.41 208.629 127.313 208.208 127.313C207.755 127.313 207.339 127.399 206.958 127.571C206.574 127.743 206.241 127.972 205.96 128.259C205.679 128.549 205.458 128.882 205.296 129.257C205.13 129.631 205.047 130.013 205.047 130.404C205.047 130.482 205.052 130.536 205.061 130.568C205.068 130.599 205.071 130.622 205.071 130.638C205.477 130.482 205.918 130.305 206.396 130.109C206.87 129.915 207.342 129.72 207.81 129.523C208.278 129.33 208.731 129.143 209.168 128.962C209.605 128.784 209.995 128.624 210.338 128.484ZM213.897 130.591C213.897 129.873 214.034 129.197 214.309 128.564C214.58 127.933 214.95 127.379 215.418 126.901C215.887 126.427 216.428 126.049 217.043 125.768C217.661 125.487 218.321 125.347 219.024 125.347C219.492 125.347 219.921 125.405 220.311 125.52C220.701 125.639 221.037 125.784 221.318 125.956C221.599 126.127 221.825 126.307 221.997 126.494C222.169 126.681 222.286 126.845 222.348 126.986L222.442 125.604H224.361V135.39H222.348V134.149C222.27 134.274 222.145 134.423 221.973 134.594C221.802 134.766 221.58 134.925 221.309 135.072C221.034 135.222 220.709 135.351 220.335 135.46C219.96 135.57 219.531 135.624 219.047 135.624C218.298 135.624 217.608 135.487 216.978 135.212C216.344 134.941 215.801 134.574 215.348 134.112C214.896 133.653 214.541 133.119 214.285 132.511C214.026 131.902 213.897 131.262 213.897 130.591ZM215.91 130.474C215.91 130.926 215.993 131.348 216.158 131.738C216.32 132.128 216.542 132.464 216.823 132.745C217.104 133.026 217.44 133.247 217.83 133.41C218.22 133.575 218.649 133.658 219.117 133.658C219.586 133.658 220.019 133.575 220.419 133.41C220.815 133.247 221.159 133.021 221.449 132.731C221.736 132.444 221.958 132.108 222.114 131.724C222.27 131.343 222.348 130.926 222.348 130.474C222.348 130.021 222.27 129.603 222.114 129.219C221.958 128.838 221.736 128.507 221.449 128.226C221.159 127.945 220.815 127.722 220.419 127.557C220.019 127.395 219.586 127.313 219.117 127.313C218.649 127.313 218.22 127.395 217.83 127.557C217.44 127.722 217.104 127.945 216.823 128.226C216.542 128.507 216.32 128.838 216.158 129.219C215.993 129.603 215.91 130.021 215.91 130.474ZM229.184 117.2V135.39H227.194V117.2H229.184ZM237.471 126.471L236.418 127.875C236.402 127.86 236.348 127.821 236.254 127.758C236.16 127.696 236.039 127.633 235.889 127.571C235.742 127.508 235.572 127.451 235.379 127.398C235.182 127.341 234.982 127.313 234.779 127.313C234.514 127.313 234.253 127.376 233.997 127.501C233.738 127.626 233.609 127.86 233.609 128.203C233.609 128.5 233.713 128.741 233.922 128.929C234.135 129.116 234.397 129.283 234.709 129.43C235.021 129.58 235.361 129.733 235.73 129.889C236.095 130.045 236.434 130.235 236.746 130.46C237.058 130.688 237.319 130.97 237.528 131.307C237.74 131.641 237.846 132.066 237.846 132.581C237.846 133.455 237.545 134.176 236.942 134.744C236.343 135.315 235.521 135.601 234.475 135.601C233.866 135.601 233.27 135.495 232.686 135.282C232.099 135.073 231.627 134.766 231.268 134.36C231.377 134.251 231.499 134.11 231.633 133.939C231.764 133.767 231.895 133.603 232.026 133.447C232.16 133.291 232.271 133.161 232.359 133.058C232.443 132.959 232.493 132.909 232.508 132.909C232.508 132.924 232.568 132.971 232.686 133.049C232.802 133.127 232.953 133.208 233.14 133.293C233.328 133.38 233.538 133.458 233.773 133.527C234.007 133.598 234.241 133.634 234.475 133.634C234.849 133.634 235.169 133.541 235.435 133.353C235.7 133.166 235.833 132.916 235.833 132.604C235.833 132.323 235.728 132.1 235.519 131.935C235.307 131.772 235.045 131.621 234.732 131.481C234.42 131.34 234.077 131.195 233.702 131.045C233.328 130.898 232.984 130.708 232.672 130.474C232.36 130.24 232.099 129.946 231.89 129.594C231.678 129.244 231.572 128.788 231.572 128.226C231.572 127.696 231.67 127.251 231.867 126.892C232.06 126.533 232.309 126.24 232.611 126.012C232.917 125.787 233.257 125.623 233.632 125.52C234.007 125.42 234.366 125.37 234.709 125.37C235.162 125.37 235.645 125.464 236.16 125.651C236.675 125.839 237.112 126.112 237.471 126.471Z" fill="white"/>
</g>
</g>
</g>
</g>
</g>
</g>
</g>
<path d="M0 91.875C0 41.1341 41.1341 0 91.875 0C124.028 0 152.324 16.5174 168.74 41.5296H165.707C149.617 17.9781 122.551 2.51987 91.875 2.51987C42.5257 2.51987 2.51987 42.5256 2.51987 91.875C2.51987 141.224 42.5257 181.23 91.875 181.23C122.551 181.23 149.617 165.772 165.707 142.22H168.74C152.324 167.233 124.028 183.75 91.875 183.75C41.1341 183.75 0 142.616 0 91.875Z" fill="white"/>
</g>
<defs>
<clipPath id="clip0_57_66">
<rect width="293.453" height="183.408" fill="white" transform="scale(1.00186)"/>
</clipPath>
<clipPath id="clip1_57_66">
<rect width="181.354" height="87.3358" fill="white" transform="translate(56.154 48.1258) scale(1.00186)"/>
</clipPath>
<clipPath id="clip2_57_66">
<rect width="181.354" height="87.3358" fill="white" transform="translate(56.154 48.1258) scale(1.00186)"/>
</clipPath>
<clipPath id="clip3_57_66">
<rect width="181.354" height="87.3358" fill="white" transform="translate(56.154 48.1258) scale(1.00186)"/>
</clipPath>
<clipPath id="clip4_57_66">
<rect width="181.354" height="87.3358" fill="white" transform="translate(56.154 48.1258) scale(1.00186)"/>
</clipPath>
<clipPath id="clip5_57_66">
<rect width="181.354" height="87.3358" fill="white" transform="translate(56.154 48.1258) scale(1.00186)"/>
</clipPath>
<clipPath id="clip6_57_66">
<rect width="181.354" height="55.7779" fill="white" transform="translate(56.154 48.1258) scale(1.00186)"/>
</clipPath>
<clipPath id="clip7_57_66">
<rect width="181.354" height="55.7779" fill="white" transform="translate(56.154 48.1258) scale(1.00186)"/>
</clipPath>
<clipPath id="clip8_57_66">
<rect width="181.354" height="18.3901" fill="white" transform="translate(56.154 117.2) scale(1.00186)"/>
</clipPath>
<clipPath id="clip9_57_66">
<rect width="181.354" height="18.3901" fill="white" transform="translate(56.154 117.2) scale(1.00186)"/>
</clipPath>
</defs>
</svg>
