<svg width="19" height="20" viewBox="0 0 19 20" fill="none" xmlns="http://www.w3.org/2000/svg">
<path d="M18.2602 0.222008C19.2466 0.830116 19.2466 2.20077 18.2602 2.80888C17.9375 3.01158 17.8453 3.01158 9.50209 3.01158C1.15887 3.01158 1.06668 3.01158 0.744009 2.80888C-0.417589 2.10425 -0.168674 0.395754 1.14043 0.0675678C1.29715 0.0193062 5.15071 0 9.68647 0C17.8269 0.0193062 17.9375 0.0193062 18.2602 0.222008ZM18.2602 8.33012C19.2466 8.93822 19.2466 10.3089 18.2602 10.917C17.9375 11.1197 17.8453 11.1197 9.50209 11.1197C1.15887 11.1197 1.06668 11.1197 0.744009 10.917C-0.417589 10.2124 -0.168674 8.50386 1.14043 8.17568C1.29715 8.12741 5.15071 8.10811 9.68647 8.10811C17.8269 8.12741 17.9375 8.12741 18.2602 8.33012ZM18.2602 17.2104C19.2466 17.8185 19.2466 19.1892 18.2602 19.7973C17.9375 20 17.8453 20 9.50209 20C1.15887 20 1.06668 20 0.744009 19.7973C-0.417589 19.0927 -0.168674 17.3842 1.14043 17.056C1.29715 17.0077 5.15071 16.9884 9.68647 16.9884C17.8269 17.0077 17.9375 17.0077 18.2602 17.2104Z" fill="black"/>
</svg>
