<svg width="23" height="23" viewBox="0 0 23 23" fill="none" xmlns="http://www.w3.org/2000/svg">
<path d="M14.0156 11.5C14.0156 11.9975 13.8681 12.4839 13.5917 12.8976C13.3152 13.3113 12.9224 13.6337 12.4627 13.8241C12.003 14.0145 11.4972 14.0644 11.0092 13.9673C10.5212 13.8702 10.073 13.6306 9.72119 13.2788C9.36937 12.927 9.12978 12.4788 9.03271 11.9908C8.93565 11.5028 8.98546 10.997 9.17587 10.5373C9.36627 10.0776 9.6887 9.68476 10.1024 9.40834C10.5161 9.13192 11.0025 8.98438 11.5 8.98438C12.1672 8.98438 12.807 9.24942 13.2788 9.72119C13.7506 10.193 14.0156 10.8328 14.0156 11.5ZM11.5 6.82813C11.9975 6.82813 12.4839 6.68059 12.8976 6.40417C13.3113 6.12775 13.6337 5.73486 13.8241 5.27519C14.0145 4.81552 14.0644 4.30971 13.9673 3.82173C13.8702 3.33374 13.6306 2.8855 13.2788 2.53369C12.927 2.18187 12.4788 1.94228 11.9908 1.84521C11.5028 1.74815 10.997 1.79796 10.5373 1.98837C10.0776 2.17877 9.68476 2.5012 9.40834 2.9149C9.13192 3.32859 8.98438 3.81496 8.98438 4.3125C8.98438 4.97969 9.24941 5.61955 9.72119 6.09132C10.193 6.56309 10.8328 6.82813 11.5 6.82813ZM11.5 16.1719C11.0025 16.1719 10.5161 16.3194 10.1024 16.5958C9.6887 16.8723 9.36627 17.2651 9.17587 17.7248C8.98546 18.1845 8.93565 18.6903 9.03271 19.1783C9.12978 19.6663 9.36937 20.1145 9.72119 20.4663C10.073 20.8181 10.5212 21.0577 11.0092 21.1548C11.4972 21.2519 12.003 21.202 12.4627 21.0116C12.9224 20.8212 13.3152 20.4988 13.5917 20.0851C13.8681 19.6714 14.0156 19.185 14.0156 18.6875C14.0156 18.0203 13.7506 17.3805 13.2788 16.9087C12.807 16.4369 12.1672 16.1719 11.5 16.1719Z" fill="#919191"/>
</svg>
